HIERARCHY
ROOT Hips
{
  OFFSET 1.847 71.654 -222.982
  CHANNELS 6 Xposition Yposition Zposition Zrotation Xrotation Yrotation
  JOINT LeftHip
  {
    OFFSET 7.442 -4.707 6.103
    CHANNELS 6 Xposition Yposition Zposition Zrotation Xrotation Yrotation
    JOINT LeftKnee
    {
      OFFSET 0.000 -47.768 0.000
      CHANNELS 6 Xposition Yposition Zposition Zrotation Xrotation Yrotation
      JOINT LeftAnkle
      {
        OFFSET -0.000 -36.750 -0.000
        CHANNELS 6 Xposition Yposition Zposition Zrotation Xrotation Yrotation
        End Site
        {
          OFFSET -0.000 -6.933 4.003
        }
      }
    }
  }
  JOINT RightHip
  {
    OFFSET -7.457 -5.179 5.087
    CHANNELS 6 Xposition Yposition Zposition Zrotation Xrotation Yrotation
    JOINT RightKnee
    {
      OFFSET -0.000 -48.407 0.000
      CHANNELS 6 Xposition Yposition Zposition Zrotation Xrotation Yrotation
      JOINT RightAnkle
      {
        OFFSET -0.000 -36.550 -0.000
        CHANNELS 6 Xposition Yposition Zposition Zrotation Xrotation Yrotation
        End Site
        {
          OFFSET 0.000 -7.199 4.156
        }
      }
    }
  }
  JOINT Chest
  {
    OFFSET 0.000 4.659 -4.659
    CHANNELS 6 Xposition Yposition Zposition Zrotation Xrotation Yrotation
    JOINT LeftCollar
    {
      OFFSET -0.000 33.435 0.000
      CHANNELS 6 Xposition Yposition Zposition Zrotation Xrotation Yrotation
      JOINT LeftShoulder
      {
        OFFSET 14.026 -14.026 -0.000
        CHANNELS 6 Xposition Yposition Zposition Zrotation Xrotation Yrotation
        JOINT LeftElbow
        {
          OFFSET 0.000 -20.243 0.000
          CHANNELS 6 Xposition Yposition Zposition Zrotation Xrotation Yrotation
          JOINT LeftWrist
          {
            OFFSET 0.000 -23.859 -0.000
            CHANNELS 6 Xposition Yposition Zposition Zrotation Xrotation Yrotation
            JOINT LeftFinger0
            {
            OFFSET -0.620 -4.970 3.390
            CHANNELS 6 Xposition Yposition Zposition Zrotation Xrotation Yrotation
              JOINT LeftFinger01
              {
              OFFSET -0.000 -2.150 0.000
              CHANNELS 6 Xposition Yposition Zposition Zrotation Xrotation Yrotation
                JOINT LeftFinger02
                {
                OFFSET -0.000 -2.200 0.000
                CHANNELS 6 Xposition Yposition Zposition Zrotation Xrotation Yrotation
                  JOINT LeftFinger03
                  {
                  OFFSET -0.000 -1.700 0.000
                  CHANNELS 6 Xposition Yposition Zposition Zrotation Xrotation Yrotation
                  }
                }
              }
            }
            JOINT LeftFinger1
            {
            OFFSET 0.680 -8.730 2.070
            CHANNELS 6 Xposition Yposition Zposition Zrotation Xrotation Yrotation
              JOINT LeftFinger11
              {
              OFFSET -0.000 -2.670 0.000
              CHANNELS 6 Xposition Yposition Zposition Zrotation Xrotation Yrotation
                JOINT LeftFinger12
                {
                OFFSET -0.000 -2.130 0.000
                CHANNELS 6 Xposition Yposition Zposition Zrotation Xrotation Yrotation
                  JOINT LeftFinger13
                  {
                  OFFSET -0.000 -1.800 0.000
                  CHANNELS 6 Xposition Yposition Zposition Zrotation Xrotation Yrotation
                  }
                }
              }
            }
            JOINT LeftFinger2
            {
            OFFSET 0.670 -9.220 0.550
            CHANNELS 6 Xposition Yposition Zposition Zrotation Xrotation Yrotation
              JOINT LeftFinger21
              {
              OFFSET -0.000 -2.660 0.000
              CHANNELS 6 Xposition Yposition Zposition Zrotation Xrotation Yrotation
                JOINT LeftFinger22
                {
                OFFSET -0.000 -2.280 0.000
                CHANNELS 6 Xposition Yposition Zposition Zrotation Xrotation Yrotation
                  JOINT LeftFinger23
                  {
                  OFFSET -0.000 -1.500 0.000
                  CHANNELS 6 Xposition Yposition Zposition Zrotation Xrotation Yrotation
                  }
                }
              }
            }
            JOINT LeftFinger3
            {
            OFFSET 0.670 -9.250 -1.130
            CHANNELS 6 Xposition Yposition Zposition Zrotation Xrotation Yrotation
              JOINT LeftFinger31
              {
              OFFSET -0.000 -2.470 0.000
              CHANNELS 6 Xposition Yposition Zposition Zrotation Xrotation Yrotation
                JOINT LeftFinger32
                {
                OFFSET -0.000 -2.210 0.000
                CHANNELS 6 Xposition Yposition Zposition Zrotation Xrotation Yrotation
                  JOINT LeftFinger33
                  {
                  OFFSET -0.000 -1.800 0.000
                  CHANNELS 6 Xposition Yposition Zposition Zrotation Xrotation Yrotation
                  }
                }
              }
            }
            JOINT LeftFinger4
            {
            OFFSET 0.660 -9.350 -2.720
            CHANNELS 6 Xposition Yposition Zposition Zrotation Xrotation Yrotation
              JOINT LeftFinger41
              {
              OFFSET -0.000 -1.630 0.000
              CHANNELS 6 Xposition Yposition Zposition Zrotation Xrotation Yrotation
                JOINT LeftFinger42
                {
                OFFSET -0.000 -1.710 0.000
                CHANNELS 6 Xposition Yposition Zposition Zrotation Xrotation Yrotation
                  JOINT LeftFinger43
                  {
                OFFSET -0.000 -1.710 0.000
                  CHANNELS 6 Xposition Yposition Zposition Zrotation Xrotation Yrotation
                  }
                }
              }
            }
          }
        }
      }
    }
    JOINT RightCollar
    {
      OFFSET -0.000 33.435 0.000
      CHANNELS 6 Xposition Yposition Zposition Zrotation Xrotation Yrotation
      JOINT RightShoulder
      {
        OFFSET -13.931 -13.931 -0.000
        CHANNELS 6 Xposition Yposition Zposition Zrotation Xrotation Yrotation
        JOINT RightElbow
        {
          OFFSET -0.000 -21.289 0.000
          CHANNELS 6 Xposition Yposition Zposition Zrotation Xrotation Yrotation
          JOINT RightWrist
          {
            OFFSET -0.000 -22.730 -0.000
            CHANNELS 6 Xposition Yposition Zposition Zrotation Xrotation Yrotation
            JOINT RightFinger0
            {
            OFFSET 0.620 -4.970 3.390
            CHANNELS 6 Xposition Yposition Zposition Zrotation Xrotation Yrotation
              JOINT RightFinger01
              {
              OFFSET -0.000 -2.150 0.000
              CHANNELS 6 Xposition Yposition Zposition Zrotation Xrotation Yrotation
                JOINT RightFinger02
                {
                OFFSET -0.000 -2.200 0.000
                CHANNELS 6 Xposition Yposition Zposition Zrotation Xrotation Yrotation
                  JOINT RightFinger03
                  {
                  OFFSET -0.000 -1.700 0.000
                  CHANNELS 6 Xposition Yposition Zposition Zrotation Xrotation Yrotation
                  }
                }
              }
            }
            JOINT RightFinger1
            {
            OFFSET -0.680 -8.730 2.070
            CHANNELS 6 Xposition Yposition Zposition Zrotation Xrotation Yrotation
              JOINT RightFinger11
              {
              OFFSET -0.000 -2.670 0.000
              CHANNELS 6 Xposition Yposition Zposition Zrotation Xrotation Yrotation
                JOINT RightFinger12
                {
                OFFSET -0.000 -2.130 0.000
                CHANNELS 6 Xposition Yposition Zposition Zrotation Xrotation Yrotation
                  JOINT RightFinger13
                  {
                  OFFSET -0.000 -1.800 0.000
                  CHANNELS 6 Xposition Yposition Zposition Zrotation Xrotation Yrotation
                  }
                }
              }
            }
            JOINT RightFinger2
            {
            OFFSET -0.670 -9.220 0.550
            CHANNELS 6 Xposition Yposition Zposition Zrotation Xrotation Yrotation
              JOINT RightFinger21
              {
              OFFSET -0.000 -2.660 0.000
              CHANNELS 6 Xposition Yposition Zposition Zrotation Xrotation Yrotation
                JOINT RightFinger22
                {
                OFFSET -0.000 -2.280 0.000
                CHANNELS 6 Xposition Yposition Zposition Zrotation Xrotation Yrotation
                  JOINT RightFinger23
                  {
                  OFFSET -0.000 -1.500 0.000
                  CHANNELS 6 Xposition Yposition Zposition Zrotation Xrotation Yrotation
                  }
                }
              }
            }
            JOINT RightFinger3
            {
            OFFSET -0.670 -9.250 -1.130
            CHANNELS 6 Xposition Yposition Zposition Zrotation Xrotation Yrotation
              JOINT RightFinger31
              {
              OFFSET -0.000 -2.470 0.000
              CHANNELS 6 Xposition Yposition Zposition Zrotation Xrotation Yrotation
                JOINT RightFinger32
                {
                OFFSET -0.000 -2.210 0.000
                CHANNELS 6 Xposition Yposition Zposition Zrotation Xrotation Yrotation
                  JOINT RightFinger33
                  {
                  OFFSET -0.000 -1.800 0.000
                  CHANNELS 6 Xposition Yposition Zposition Zrotation Xrotation Yrotation
                  }
                }
              }
            }
            JOINT RightFinger4
            {
            OFFSET -0.660 -9.350 -2.720
            CHANNELS 6 Xposition Yposition Zposition Zrotation Xrotation Yrotation
              JOINT RightFinger41
              {
              OFFSET -0.000 -1.630 0.000
              CHANNELS 6 Xposition Yposition Zposition Zrotation Xrotation Yrotation
                JOINT RightFinger42
                {
                OFFSET -0.000 -1.710 0.000
                CHANNELS 6 Xposition Yposition Zposition Zrotation Xrotation Yrotation
                  JOINT RightFinger43
                  {
                  OFFSET -0.000 -1.800 0.000
                  CHANNELS 6 Xposition Yposition Zposition Zrotation Xrotation Yrotation
                  }
                }
              }
            }
          }
        }
      }
    }
    JOINT Neck
    {
      OFFSET -0.000 33.435 0.000
      CHANNELS 6 Xposition Yposition Zposition Zrotation Xrotation Yrotation
      JOINT Head
      {
        OFFSET -0.000 16.424 -0.000
        CHANNELS 6 Xposition Yposition Zposition Zrotation Xrotation Yrotation
        End Site
        {
          OFFSET -0.000 0.066 -0.000
        }
      }
    }
  }
}
MOTION
Frames:	6
Frame Time:	0.0333333
5.89682 72.8726 -237.195 1.86482 41.962 -1.47989 7.67994 -4.92481 5.93927 3.19058 -31.0671 0.198152 3.72529e-07 -49.2794 2.38419e-05 -1.3814 -10.1764 -0.244109 1.86265e-06 -36.3343 0 16.135 -19.8736 14.5944 -7.70346 -4.97869 5.51794 -3.19056 -29.3139 -3.03032 1.49012e-06 -49.2471 -2.38419e-05 1.99567 -13.093 0.452258 7.45058e-07 -36.7396 -2.38419e-05 -21.1608 -14.1873 -17.858 -7.45058e-07 4.84825 -4.84824 -0.00466414 -47.4818 0.0106614 -2.42144e-06 33.435 0 15.324 2.71546 2.7185 14.2085 -14.2084 2.38419e-05 -2.24083 -19.7913 -37.4979 1.19209e-05 -20.4978 0 -180 -67.6583 180 -1.78814e-05 -20.211 7.15256e-05 -8.60466 -5.63644 -0.213262 0.0062 0.0497 0.0339 0 0 0 0 0.0215 0 0 0 0 0 0.022 0 0 0 0 0 0.017 0 0 0 0 -0.0068 0.0873 0.0207 0 0 0 0 0.0267 0 0 0 0 0 0.0213 0 0 0 0 0 0.018 0 0 0 0 -0.0067 0.0922 0.0055 0 0 0 0 0.0266 0 0 0 0 0 0.0228 0 0 0 0 0 0.015 0 0 0 0 -0.0067 0.0925 -0.0113 0 0 0 0 0.0247 0 0 0 0 0 0.0221 0 0 0 0 0 0.018 0 0 0 0 -0.0066 0.0935 -0.0272 0 0 0 0 0.0163 0 0 0 0 0 0.0171 0 0 0 0 0 0.018 0 0 0 0 -2.42144e-06 33.435 0 -14.1951 2.86273 -2.86631 -13.4781 -13.4781 -2.38419e-05 8.22978 -19.2139 39.6182 0 -22.8308 0 180 -65.4335 180 1.78814e-05 -22.766 4.76837e-05 -4.15295 -7.21705 -0.305915 -0.0062 0.0497 0.0339 7.1772 0 0 0 0.0215 0 0 -7.1772 0 0 0.022 0 0 -7.1772 0 0 0.017 0 0 0 0 0.0068 0.0873 0.0207 7.1772 0 0 0 0.0267 0 12.7595 0 0 0 0.0213 0 14.3544 0 0 0 0.018 0 0 0 0 0.0067 0.0922 0.0055 7.1772 0 0 0 0.0266 0 12.7595 0 0 0 0.0228 0 14.3544 0 0 0 0.015 0 0 0 0 0.0067 0.0925 -0.0113 7.1772 0 0 0 0.0247 0 12.7595 0 0 0 0.0221 0 14.3544 0 0 0 0.018 0 0 0 0 0.0066 0.0935 -0.0272 7.1772 0 0 0 0.0163 0 12.7595 0 0 0 0.0171 0 14.3544 0 0 0 0.018 0 0 0 0 -2.42144e-06 33.435 0 -2.81974 12.413 0.60659 -2.98023e-06 18.576 -4.76837e-05 9.78505e-06 -9.39151e-06 -5.33609e-08
5.93434 72.8506 -237.107 1.98526 41.8663 -1.69219 7.68053 -4.98307 5.88958 3.12222 -30.9126 0.657386 -5.96046e-06 -49.3 4.76837e-05 -1.39854 -10.2219 -0.248234 1.49012e-06 -36.3381 4.76837e-05 14.3744 -20.0599 13.0383 -7.70154 -4.92942 5.56128 -3.24824 -29.1126 -2.55295 -7.45058e-07 -49.2654 0 1.92849 -13.1883 0.440147 1.49012e-06 -36.6882 0 -21.9013 -13.5694 -18.3193 7.45058e-07 4.86267 -4.86262 -0.0248187 -47.4392 0.0053008 -4.65661e-06 33.435 0 14.8074 2.27949 2.28128 14.2485 -14.2485 0 -0.581771 -18.9549 -38.9894 -2.38419e-05 -20.3152 3.57628e-05 180 -65.6812 180 1.19209e-05 -20.1284 -4.76837e-05 -4.37204 -5.25056 -0.0808365 0.0062 0.0497 0.0339 0 0 0 0 0.0215 0 0 0 0 0 0.022 0 0 0 0 0 0.017 0 0 0 0 -0.0068 0.0873 0.0207 0 0 0 0 0.0267 0 0 0 0 0 0.0213 0 0 0 0 0 0.018 0 0 0 0 -0.0067 0.0922 0.0055 0 0 0 0 0.0266 0 0 0 0 0 0.0228 0 0 0 0 0 0.015 0 0 0 0 -0.0067 0.0925 -0.0113 0 0 0 0 0.0247 0 0 0 0 0 0.0221 0 0 0 0 0 0.018 0 0 0 0 -0.0066 0.0935 -0.0272 0 0 0 0 0.0163 0 0 0 0 0 0.0171 0 0 0 0 0 0.018 0 0 0 0 -4.65661e-06 33.435 0 -14.0365 2.40666 -2.40879 -13.496 -13.496 -2.38419e-05 7.95738 -19.3356 41.4947 -5.96046e-06 -22.6189 1.19209e-05 180 -63.7222 180 2.98023e-05 -24.366 7.15256e-05 -8.45387 -4.44442 -0.260767 -0.0062 0.0497 0.0339 0.617267 0 0 0 0.0215 0 0 -0.617267 0 0 0.022 0 0 -0.617267 0 0 0.017 0 0 0 0 0.0068 0.0873 0.0207 0.617267 0 0 0 0.0267 0 1.09736 0 0 0 0.0213 0 1.23453 0 0 0 0.018 0 0 0 0 0.0067 0.0922 0.0055 0.617267 0 0 0 0.0266 0 1.09736 0 0 0 0.0228 0 1.23453 0 0 0 0.015 0 0 0 0 0.0067 0.0925 -0.0113 0.617267 0 0 0 0.0247 0 1.09736 0 0 0 0.0221 0 1.23453 0 0 0 0.018 0 0 0 0 0.0066 0.0935 -0.0272 0.617267 0 0 0 0.0163 0 1.09736 0 0 0 0.0171 0 1.23453 0 0 0 0.018 0 0 0 0 -4.65661e-06 33.435 0 -2.89981 12.4618 0.626257 -2.23517e-06 18.561 2.38419e-05 1.00985e-05 -8.96462e-06 2.13443e-07
5.93434 72.8506 -237.107 1.98526 41.8663 -1.69219 7.68053 -4.98307 5.88958 3.12222 -30.9126 0.657386 -5.96046e-06 -49.3 4.76837e-05 -1.39854 -10.2219 -0.248234 1.49012e-06 -36.3381 4.76837e-05 14.3744 -20.0599 13.0383 -7.70154 -4.92942 5.56128 -3.24824 -29.1126 -2.55295 -7.45058e-07 -49.2654 0 1.92849 -13.1883 0.440147 1.49012e-06 -36.6882 0 -21.9013 -13.5694 -18.3193 7.45058e-07 4.86267 -4.86262 -0.0248187 -47.4392 0.0053008 -4.65661e-06 33.435 0 14.8074 2.27949 2.28128 14.2485 -14.2485 0 -0.581771 -18.9549 -38.9894 -2.38419e-05 -20.3152 3.57628e-05 180 -65.6812 180 1.19209e-05 -20.1284 -4.76837e-05 -4.37204 -5.25056 -0.0808365 0.0062 0.0497 0.0339 0 0 0 0 0.0215 0 0 0 0 0 0.022 0 0 0 0 0 0.017 0 0 0 0 -0.0068 0.0873 0.0207 0 0 0 0 0.0267 0 0 0 0 0 0.0213 0 0 0 0 0 0.018 0 0 0 0 -0.0067 0.0922 0.0055 0 0 0 0 0.0266 0 0 0 0 0 0.0228 0 0 0 0 0 0.015 0 0 0 0 -0.0067 0.0925 -0.0113 0 0 0 0 0.0247 0 0 0 0 0 0.0221 0 0 0 0 0 0.018 0 0 0 0 -0.0066 0.0935 -0.0272 0 0 0 0 0.0163 0 0 0 0 0 0.0171 0 0 0 0 0 0.018 0 0 0 0 -4.65661e-06 33.435 0 -14.0365 2.40666 -2.40879 -13.496 -13.496 -2.38419e-05 7.95738 -19.3356 41.4947 -5.96046e-06 -22.6189 1.19209e-05 180 -63.7222 180 2.98023e-05 -24.366 7.15256e-05 -8.45387 -4.44442 -0.260767 -0.0062 0.0497 0.0339 0.617267 0 0 0 0.0215 0 0 -0.617267 0 0 0.022 0 0 -0.617267 0 0 0.017 0 0 0 0 0.0068 0.0873 0.0207 0.617267 0 0 0 0.0267 0 1.09736 0 0 0 0.0213 0 1.23453 0 0 0 0.018 0 0 0 0 0.0067 0.0922 0.0055 0.617267 0 0 0 0.0266 0 1.09736 0 0 0 0.0228 0 1.23453 0 0 0 0.015 0 0 0 0 0.0067 0.0925 -0.0113 0.617267 0 0 0 0.0247 0 1.09736 0 0 0 0.0221 0 1.23453 0 0 0 0.018 0 0 0 0 0.0066 0.0935 -0.0272 0.617267 0 0 0 0.0163 0 1.09736 0 0 0 0.0171 0 1.23453 0 0 0 0.018 0 0 0 0 -4.65661e-06 33.435 0 -2.89981 12.4618 0.626257 -2.23517e-06 18.561 2.38419e-05 1.00985e-05 -8.96462e-06 2.13443e-07
5.95656 72.8432 -237.055 2.04589 41.8345 -1.81593 7.68063 -5.01463 5.86231 3.10533 -30.8568 0.926255 2.98023e-06 -49.3104 -2.38419e-05 -1.42216 -10.2484 -0.253076 -5.21541e-06 -36.3364 2.38419e-05 14.1234 -20.0428 12.7939 -7.69932 -4.90111 5.58593 -3.26866 -29.0262 -2.28214 -2.98023e-06 -49.2746 0 1.89323 -13.2318 0.433492 7.45058e-07 -36.674 4.76837e-05 -22.1901 -13.3418 -18.5105 -7.45058e-07 4.86878 -4.86875 -0.0274931 -47.4304 0.00889871 -1.11759e-06 33.435 0 14.5794 2.13651 2.13798 14.261 -14.261 2.38419e-05 0.321438 -18.5759 -39.579 -1.19209e-05 -20.2801 -1.19209e-05 180 -64.7336 180 -5.96046e-06 -20.1031 4.76837e-05 -1.55795 -4.91408 0.0115231 0.0062 0.0497 0.0339 0 0 0 0 0.0215 0 0 0 0 0 0.022 0 0 0 0 0 0.017 0 0 0 0 -0.0068 0.0873 0.0207 0 0 0 0 0.0267 0 0 0 0 0 0.0213 0 0 0 0 0 0.018 0 0 0 0 -0.0067 0.0922 0.0055 0 0 0 0 0.0266 0 0 0 0 0 0.0228 0 0 0 0 0 0.015 0 0 0 0 -0.0067 0.0925 -0.0113 0 0 0 0 0.0247 0 0 0 0 0 0.0221 0 0 0 0 0 0.018 0 0 0 0 -0.0066 0.0935 -0.0272 0 0 0 0 0.0163 0 0 0 0 0 0.0171 0 0 0 0 0 0.018 0 0 0 0 -1.11759e-06 33.435 0 -14.0513 2.25655 -2.2583 -13.5028 -13.5028 7.15256e-05 8.14348 -19.7924 42.3221 2.38419e-05 -22.5702 0 180 -63.4741 180 1.78814e-05 -24.9098 0 -9.78434 -3.5981 -0.204261 -0.0062 0.0497 0.0339 0 0 0 0 0.0215 0 0 0 0 0 0.022 0 0 0 0 0 0.017 0 0 0 0 0.0068 0.0873 0.0207 0 0 0 0 0.0267 0 0 0 0 0 0.0213 0 0 0 0 0 0.018 0 0 0 0 0.0067 0.0922 0.0055 0 0 0 0 0.0266 0 0 0 0 0 0.0228 0 0 0 0 0 0.015 0 0 0 0 0.0067 0.0925 -0.0113 0 0 0 0 0.0247 0 0 0 0 0 0.0221 0 0 0 0 0 0.018 0 0 0 0 0.0066 0.0935 -0.0272 0 0 0 0 0.0163 0 0 0 0 0 0.0171 0 0 0 0 0 0.018 0 0 0 0 -1.11759e-06 33.435 0 -2.91199 12.4682 0.629212 -3.1665e-06 18.5482 -2.38419e-05 1.0432e-05 -1.06722e-05 1.06722e-07
5.98107 72.8393 -237.003 2.11916 41.8099 -1.95065 7.68278 -5.04469 5.83742 3.08246 -30.8054 1.1713 2.23517e-06 -49.3202 4.76837e-05 -1.42586 -10.3378 -0.255923 3.72529e-06 -36.3117 -4.76837e-05 13.9793 -19.9119 12.6287 -7.6984 -4.87472 5.60839 -3.29633 -28.9594 -2.03657 -7.45058e-07 -49.2837 -7.15256e-05 1.84651 -13.2649 0.423827 -7.45058e-07 -36.6564 7.15256e-05 -22.4093 -13.1819 -18.6637 0 4.8737 -4.87368 -0.0221703 -47.4291 0.0187905 -4.65661e-07 33.4349 -2.38419e-05 14.3629 2.02394 2.02519 14.2753 -14.2753 -4.76837e-05 1.08891 -17.9624 -39.9371 1.78814e-05 -20.2486 2.38419e-05 180 -63.915 180 2.38419e-05 -20.0973 -2.38419e-05 0.449233 -4.49367 0.0641817 0.0062 0.0497 0.0339 0 0 0 0 0.0215 0 0 0 0 0 0.022 0 0 0 0 0 0.017 0 0 0 0 -0.0068 0.0873 0.0207 0 0 0 0 0.0267 0 0 0 0 0 0.0213 0 0 0 0 0 0.018 0 0 0 0 -0.0067 0.0922 0.0055 0 0 0 0 0.0266 0 0 0 0 0 0.0228 0 0 0 0 0 0.015 0 0 0 0 -0.0067 0.0925 -0.0113 0 0 0 0 0.0247 0 0 0 0 0 0.0221 0 0 0 0 0 0.018 0 0 0 0 -0.0066 0.0935 -0.0272 0 0 0 0 0.0163 0 0 0 0 0 0.0171 0 0 0 0 0 0.018 0 0 0 0 -4.65661e-07 33.4349 -2.38419e-05 -14.0935 2.13921 -2.14071 -13.5064 -13.5063 4.76837e-05 8.26835 -20.0907 42.8749 2.98023e-05 -22.5501 -1.19209e-05 180 -63.4632 180 -2.98023e-05 -25.3177 0 -10.9206 -3.16942 -0.16382 -0.0062 0.0497 0.0339 0 0 0 0 0.0215 0 0 0 0 0 0.022 0 0 0 0 0 0.017 0 0 0 0 0.0068 0.0873 0.0207 0 0 0 0 0.0267 0 0 0 0 0 0.0213 0 0 0 0 0 0.018 0 0 0 0 0.0067 0.0922 0.0055 0 0 0 0 0.0266 0 0 0 0 0 0.0228 0 0 0 0 0 0.015 0 0 0 0 0.0067 0.0925 -0.0113 0 0 0 0 0.0247 0 0 0 0 0 0.0221 0 0 0 0 0 0.018 0 0 0 0 0.0066 0.0935 -0.0272 0 0 0 0 0.0163 0 0 0 0 0 0.0171 0 0 0 0 0 0.018 0 0 0 0 -4.65661e-07 33.4349 -2.38419e-05 -2.9697 12.5026 0.643442 -5.58794e-06 18.5351 2.38419e-05 1.00985e-05 -9.8184e-06 1.06722e-07
6.00952 72.8328 -236.953 2.19904 41.7981 -2.0944 7.68536 -5.07524 5.81734 3.08925 -30.7708 1.40633 0 -49.3301 0 -1.4891 -10.4437 -0.269988 1.49012e-06 -36.2992 4.76837e-05 13.9777 -19.7139 12.5846 -7.69631 -4.84849 5.62744 -3.32152 -28.9296 -1.8179 -1.49012e-06 -49.2931 -2.38419e-05 1.7863 -13.2555 0.409713 -7.45058e-07 -36.6413 9.53674e-05 -22.6821 -12.9185 -18.8239 4.37722e-06 4.87808 -4.87807 -0.012851 -47.4297 0.0320016 -1.11759e-06 33.435 4.76837e-05 14.1619 1.93302 1.9341 14.2878 -14.2878 -7.15256e-05 1.77877 -17.6334 -40.3564 1.19209e-05 -20.2506 0 180 -63.1877 180 1.19209e-05 -20.087 2.38419e-05 1.96673 -4.10162 0.0906949 0.0062 0.0497 0.0339 0 0 0 0 0.0215 0 0 0 0 0 0.022 0 0 0 0 0 0.017 0 0 0 0 -0.0068 0.0873 0.0207 0 0 0 0 0.0267 0 0 0 0 0 0.0213 0 0 0 0 0 0.018 0 0 0 0 -0.0067 0.0922 0.0055 0 0 0 0 0.0266 0 0 0 0 0 0.0228 0 0 0 0 0 0.015 0 0 0 0 -0.0067 0.0925 -0.0113 0 0 0 0 0.0247 0 0 0 0 0 0.0221 0 0 0 0 0 0.018 0 0 0 0 -0.0066 0.0935 -0.0272 0 0 0 0 0.0163 0 0 0 0 0 0.0171 0 0 0 0 0 0.018 0 0 0 0 -1.11759e-06 33.435 4.76837e-05 -14.1731 2.0447 -2.04601 -13.5076 -13.5077 -4.76837e-05 8.1729 -20.1142 43.5656 0 -22.6313 -1.19209e-05 -180 -63.6076 180 -1.78814e-05 -25.6338 0 -12.1135 -3.10503 -0.141421 -0.0062 0.0497 0.0339 0 0 0 0 0.0215 0 0 0 0 0 0.022 0 0 0 0 0 0.017 0 0 0 0 0.0068 0.0873 0.0207 0 0 0 0 0.0267 0 0 0 0 0 0.0213 0 0 0 0 0 0.018 0 0 0 0 0.0067 0.0922 0.0055 0 0 0 0 0.0266 0 0 0 0 0 0.0228 0 0 0 0 0 0.015 0 0 0 0 0.0067 0.0925 -0.0113 0 0 0 0 0.0247 0 0 0 0 0 0.0221 0 0 0 0 0 0.018 0 0 0 0 0.0066 0.0935 -0.0272 0 0 0 0 0.0163 0 0 0 0 0 0.0171 0 0 0 0 0 0.018 0 0 0 0 -1.11759e-06 33.435 4.76837e-05 -3.01727 12.5129 0.654298 -3.72529e-06 18.5257 9.53674e-05 9.75169e-06 -8.96462e-06 2.13443e-07
